<svg xmlns="http://www.w3.org/2000/svg" viewBox="0 0 128 128" role="img"><title>불사조 강림</title><defs><radialGradient id="bg"><stop stop-color="#ff805b" stop-opacity=".65"/><stop offset="1" stop-color="#071021"/></radialGradient></defs><rect x="2" y="2" width="124" height="124" rx="25" fill="url(#bg)" stroke="#ffd780" stroke-width="3"/><polygon points="104.0,64.0 80.6,70.9 92.3,92.3 70.9,80.6 64.0,104.0 57.1,80.6 35.7,92.3 47.4,70.9 24.0,64.0 47.4,57.1 35.7,35.7 57.1,47.4 64.0,24.0 70.9,47.4 92.3,35.7 80.6,57.1" fill="none" stroke="#ff805b" opacity=".4"/><g transform="rotate(-2 64 64)" stroke="#ff805b" stroke-width="5" fill="#ff805b" fill-opacity=".2" stroke-linecap="round" stroke-linejoin="round"><path d="M63 24Q67 47 86 61Q105 90 66 103Q29 96 35 68Q40 54 44 42Q45 76 63 24Z"/></g><path d="M20 18L26 27L32 18L38 27L44 18V32H20Z" fill="#ffd780"/><text x="105" y="115" text-anchor="middle" fill="#ffe5a6" font-size="14">20</text></svg>