<svg xmlns="http://www.w3.org/2000/svg" viewBox="0 0 128 128" role="img"><title>심판의 궤적</title><defs><radialGradient id="bg"><stop stop-color="#c9efff" stop-opacity=".4"/><stop offset="1" stop-color="#091320"/></radialGradient><filter id="glow"><feGaussianBlur stdDeviation="1.8"/></filter></defs><rect x="2" y="2" width="124" height="124" rx="25" fill="url(#bg)" stroke="#c9efff" stroke-opacity=".65"/><g stroke="#c9efff" stroke-width="2" opacity=".55"><path d="M27.96 38.76l-4.91 -3.44"/><path d="M56.36 20.67l-1.04 -5.91"/><path d="M89.24 27.96l3.44 -4.91"/><path d="M107.33 56.36l5.91 -1.04"/><path d="M100.04 89.24l4.91 3.44"/><path d="M71.64 107.33l1.04 5.91"/><path d="M38.76 100.04l-3.44 4.91"/><path d="M20.67 71.64l-5.91 1.04"/></g><g transform="rotate(-5 64 64)" fill="#c9efff" fill-opacity=".18" stroke="#c9efff" stroke-width="5" stroke-linecap="round" stroke-linejoin="round"><path d="M23 105L88 18L106 36L41 114Z"/><path d="M27 76L59 102M57 59L87 40"/><path d="M26 28L41 43M88 81L113 98"/></g><circle cx="29" cy="97" r="6" fill="#fff"/><path d="M81 18l5 5-5 5-5-5Z" fill="#c9efff"/><g fill="#fff" opacity=".8"><circle cx="61" cy="39" r="2"/><circle cx="60" cy="85" r="1.8"/></g></svg>