<svg xmlns="http://www.w3.org/2000/svg" viewBox="0 0 128 128" role="img"><title>멸화 폭풍</title><defs><radialGradient id="bg"><stop stop-color="#ff7439" stop-opacity=".4"/><stop offset="1" stop-color="#091320"/></radialGradient><filter id="glow"><feGaussianBlur stdDeviation="1.8"/></filter></defs><rect x="2" y="2" width="124" height="124" rx="25" fill="url(#bg)" stroke="#ff7439" stroke-opacity=".65"/><g stroke="#ff7439" stroke-width="2" opacity=".55"><path d="M59.13 103.70l-0.73 5.96"/><path d="M36.72 93.25l-4.09 4.39"/><path d="M24.73 71.63l-5.89 1.14"/><path d="M27.75 47.10l-5.44 -2.54"/><path d="M44.61 29.02l-2.91 -5.25"/><path d="M68.87 24.30l0.73 -5.96"/><path d="M91.28 34.75l4.09 -4.39"/><path d="M103.27 56.37l5.89 -1.14"/><path d="M100.25 80.90l5.44 2.54"/><path d="M83.39 98.98l2.91 5.25"/></g><g transform="rotate(3 64 64)" fill="#ff7439" fill-opacity=".18" stroke="#ff7439" stroke-width="5" stroke-linecap="round" stroke-linejoin="round"><ellipse cx="64" cy="88" rx="43" ry="17"/><path d="M24 76L42 44L58 66L71 25L83 63L104 47L99 77"/><circle cx="64" cy="57" r="15"/></g><circle cx="38" cy="93" r="4" fill="#fff"/><path d="M81 18l5 5-5 5-5-5Z" fill="#ff7439"/><g fill="#fff" opacity=".8"><circle cx="65" cy="38" r="2"/><circle cx="72" cy="82" r="1.8"/></g></svg>