<svg xmlns="http://www.w3.org/2000/svg" viewBox="0 0 128 128" role="img"><title>천공 회오리</title><defs><radialGradient id="bg"><stop stop-color="#62e9ad" stop-opacity=".4"/><stop offset="1" stop-color="#091320"/></radialGradient><filter id="glow"><feGaussianBlur stdDeviation="1.8"/></filter></defs><rect x="2" y="2" width="124" height="124" rx="25" fill="url(#bg)" stroke="#62e9ad" stroke-opacity=".65"/><g stroke="#62e9ad" stroke-width="2" opacity=".55"><path d="M93.25 91.28l4.39 4.09"/><path d="M75.69 102.25l1.75 5.74"/><path d="M55.00 102.97l-1.35 5.85"/><path d="M36.72 93.25l-4.09 4.39"/><path d="M25.75 75.69l-5.74 1.75"/><path d="M25.03 55.00l-5.85 -1.35"/><path d="M34.75 36.72l-4.39 -4.09"/><path d="M52.31 25.75l-1.75 -5.74"/><path d="M73.00 25.03l1.35 -5.85"/><path d="M91.28 34.75l4.09 -4.39"/><path d="M102.25 52.31l5.74 -1.75"/><path d="M102.97 73.00l5.85 1.35"/></g><g transform="rotate(-9 64 64)" fill="#62e9ad" fill-opacity=".18" stroke="#62e9ad" stroke-width="5" stroke-linecap="round" stroke-linejoin="round"><path d="M64 17L76 46L108 51L84 74L91 109L64 89L37 109L44 74L20 51L52 46Z"/><circle cx="64" cy="64" r="17"/></g><circle cx="39" cy="97" r="6" fill="#fff"/><path d="M89 18l5 5-5 5-5-5Z" fill="#62e9ad"/><g fill="#fff" opacity=".8"><circle cx="61" cy="56" r="2"/><circle cx="73" cy="87" r="1.8"/></g></svg>