<svg xmlns="http://www.w3.org/2000/svg" viewBox="0 0 128 128" role="img"><title>초침의 낙인</title><defs><radialGradient id="bg"><stop stop-color="#6ae9dc" stop-opacity=".4"/><stop offset="1" stop-color="#091320"/></radialGradient><filter id="glow"><feGaussianBlur stdDeviation="1.8"/></filter></defs><rect x="2" y="2" width="124" height="124" rx="25" fill="url(#bg)" stroke="#6ae9dc" stroke-opacity=".65"/><g stroke="#6ae9dc" stroke-width="2" opacity=".55"><path d="M105.94 66.20l5.99 0.31"/><path d="M99.22 86.87l5.03 3.27"/><path d="M83.07 101.42l2.72 5.35"/><path d="M61.80 105.94l-0.31 5.99"/><path d="M41.13 99.22l-3.27 5.03"/><path d="M26.58 83.07l-5.35 2.72"/><path d="M22.06 61.80l-5.99 -0.31"/><path d="M28.78 41.13l-5.03 -3.27"/><path d="M44.93 26.58l-2.72 -5.35"/><path d="M66.20 22.06l0.31 -5.99"/><path d="M86.87 28.78l3.27 -5.03"/><path d="M101.42 44.93l5.35 -2.72"/></g><g transform="rotate(-7 64 64)" fill="#6ae9dc" fill-opacity=".18" stroke="#6ae9dc" stroke-width="5" stroke-linecap="round" stroke-linejoin="round"><path d="M64 17L108 43L96 92L64 111L32 92L20 43Z"/><path d="M43 42L85 86M85 42L43 86"/><circle cx="64" cy="64" r="20"/></g><circle cx="33" cy="93" r="6" fill="#fff"/><path d="M90 18l5 5-5 5-5-5Z" fill="#6ae9dc"/><g fill="#fff" opacity=".8"><circle cx="65" cy="43" r="2"/><circle cx="75" cy="81" r="1.8"/></g></svg>