<svg xmlns="http://www.w3.org/2000/svg" viewBox="0 0 128 128" role="img"><title>폭염의 공명</title><defs><radialGradient id="bg"><stop stop-color="#ff7439" stop-opacity=".4"/><stop offset="1" stop-color="#091320"/></radialGradient><filter id="glow"><feGaussianBlur stdDeviation="1.8"/></filter></defs><rect x="2" y="2" width="124" height="124" rx="25" fill="url(#bg)" stroke="#ff7439" stroke-opacity=".65"/><g stroke="#ff7439" stroke-width="2" opacity=".55"><path d="M22.52 70.57l-5.93 0.94"/><path d="M24.79 48.95l-5.60 -2.15"/><path d="M37.57 31.36l-3.78 -4.66"/><path d="M57.43 22.52l-0.94 -5.93"/><path d="M79.05 24.79l2.15 -5.60"/><path d="M96.64 37.57l4.66 -3.78"/><path d="M105.48 57.43l5.93 -0.94"/><path d="M103.21 79.05l5.60 2.15"/><path d="M90.43 96.64l3.78 4.66"/><path d="M70.57 105.48l0.94 5.93"/><path d="M48.95 103.21l-2.15 5.60"/><path d="M31.36 90.43l-4.66 3.78"/></g><g transform="rotate(-7 64 64)" fill="#ff7439" fill-opacity=".18" stroke="#ff7439" stroke-width="5" stroke-linecap="round" stroke-linejoin="round"><circle cx="64" cy="64" r="39"/><path d="M64 34V94M34 64H94"/><circle cx="64" cy="64" r="23"/></g><circle cx="40" cy="91" r="6" fill="#fff"/><path d="M79 18l5 5-5 5-5-5Z" fill="#ff7439"/><g fill="#fff" opacity=".8"><circle cx="67" cy="40" r="2"/><circle cx="70" cy="80" r="1.8"/></g></svg>