<svg xmlns="http://www.w3.org/2000/svg" viewBox="0 0 128 128" role="img"><title>바위 폭주</title><defs><radialGradient id="bg"><stop stop-color="#d4a160" stop-opacity=".4"/><stop offset="1" stop-color="#091320"/></radialGradient><filter id="glow"><feGaussianBlur stdDeviation="1.8"/></filter></defs><rect x="2" y="2" width="124" height="124" rx="25" fill="url(#bg)" stroke="#d4a160" stroke-opacity=".65"/><g stroke="#d4a160" stroke-width="2" opacity=".55"><path d="M106.35 71.47l5.91 1.04"/><path d="M84.56 101.76l2.87 5.27"/><path d="M47.30 103.62l-2.33 5.53"/><path d="M22.61 75.65l-5.78 1.63"/><path d="M29.09 38.90l-4.87 -3.50"/><path d="M61.86 21.05l-0.30 -5.99"/><path d="M96.24 35.55l4.50 -3.97"/></g><g transform="rotate(0 64 64)" fill="#d4a160" fill-opacity=".18" stroke="#d4a160" stroke-width="5" stroke-linecap="round" stroke-linejoin="round"><ellipse cx="64" cy="88" rx="43" ry="17"/><path d="M24 76L42 44L58 66L71 25L83 63L104 47L99 77"/><circle cx="64" cy="57" r="12"/></g><circle cx="38" cy="89" r="5" fill="#fff"/><path d="M80 18l5 5-5 5-5-5Z" fill="#d4a160"/><g fill="#fff" opacity=".8"><circle cx="58" cy="41" r="2"/><circle cx="66" cy="87" r="1.8"/></g></svg>