<svg xmlns="http://www.w3.org/2000/svg" viewBox="0 0 128 128" role="img"><title>항성 관측</title><defs><radialGradient id="bg"><stop stop-color="#ffc9fc" stop-opacity=".4"/><stop offset="1" stop-color="#091320"/></radialGradient><filter id="glow"><feGaussianBlur stdDeviation="1.8"/></filter></defs><rect x="2" y="2" width="124" height="124" rx="25" fill="url(#bg)" stroke="#ffc9fc" stroke-opacity=".65"/><g stroke="#ffc9fc" stroke-width="2" opacity=".55"><path d="M99.63 48.14l5.48 -2.44"/><path d="M90.10 92.98l4.01 4.46"/><path d="M44.50 97.77l-3.00 5.20"/><path d="M25.85 55.89l-5.87 -1.25"/><path d="M59.92 25.21l-0.63 -5.97"/></g><g transform="rotate(-10 64 64)" fill="#ffc9fc" fill-opacity=".18" stroke="#ffc9fc" stroke-width="5" stroke-linecap="round" stroke-linejoin="round"><path d="M64 17L108 43L96 92L64 111L32 92L20 43Z"/><path d="M43 42L85 86M85 42L43 86"/><circle cx="64" cy="64" r="20"/></g><circle cx="42" cy="95" r="3" fill="#fff"/><path d="M81 18l5 5-5 5-5-5Z" fill="#ffc9fc"/><g fill="#fff" opacity=".8"><circle cx="52" cy="52" r="2"/><circle cx="66" cy="95" r="1.8"/></g></svg>