<svg xmlns="http://www.w3.org/2000/svg" viewBox="0 0 128 128" role="img"><title>작은 유성</title><defs><radialGradient id="bg"><stop stop-color="#ffc9fc" stop-opacity=".4"/><stop offset="1" stop-color="#091320"/></radialGradient><filter id="glow"><feGaussianBlur stdDeviation="1.8"/></filter></defs><rect x="2" y="2" width="124" height="124" rx="25" fill="url(#bg)" stroke="#ffc9fc" stroke-opacity=".65"/><g stroke="#ffc9fc" stroke-width="2" opacity=".55"><path d="M85.33 25.52l2.91 -5.25"/><path d="M101.72 41.34l5.14 -3.09"/><path d="M107.99 63.23l6.00 -0.10"/><path d="M102.48 85.33l5.25 2.91"/><path d="M86.66 101.72l3.09 5.14"/><path d="M64.77 107.99l0.10 6.00"/><path d="M42.67 102.48l-2.91 5.25"/><path d="M26.28 86.66l-5.14 3.09"/><path d="M20.01 64.77l-6.00 0.10"/><path d="M25.52 42.67l-5.25 -2.91"/><path d="M41.34 26.28l-3.09 -5.14"/><path d="M63.23 20.01l-0.10 -6.00"/></g><g transform="rotate(-5 64 64)" fill="#ffc9fc" fill-opacity=".18" stroke="#ffc9fc" stroke-width="5" stroke-linecap="round" stroke-linejoin="round"><path d="M64 17L76 46L108 51L84 74L91 109L64 89L37 109L44 74L20 51L52 46Z"/><circle cx="64" cy="64" r="21"/></g><circle cx="41" cy="96" r="6" fill="#fff"/><path d="M82 18l5 5-5 5-5-5Z" fill="#ffc9fc"/><g fill="#fff" opacity=".8"><circle cx="51" cy="51" r="2"/><circle cx="67" cy="96" r="1.8"/></g></svg>