<svg xmlns="http://www.w3.org/2000/svg" viewBox="0 0 128 128" role="img"><title>장갑 분쇄</title><defs><radialGradient id="bg"><stop stop-color="#c9efff" stop-opacity=".4"/><stop offset="1" stop-color="#091320"/></radialGradient><filter id="glow"><feGaussianBlur stdDeviation="1.8"/></filter></defs><rect x="2" y="2" width="124" height="124" rx="25" fill="url(#bg)" stroke="#c9efff" stroke-opacity=".65"/><g stroke="#c9efff" stroke-width="2" opacity=".55"><path d="M21.03 65.50l-6.00 0.21"/><path d="M36.03 31.34l-3.90 -4.56"/><path d="M72.10 21.77l1.13 -5.89"/><path d="M102.07 44.00l5.31 -2.79"/><path d="M103.37 81.29l5.49 2.41"/><path d="M75.03 105.56l1.54 5.80"/><path d="M38.38 98.53l-3.57 4.82"/></g><g transform="rotate(0 64 64)" fill="#c9efff" fill-opacity=".18" stroke="#c9efff" stroke-width="5" stroke-linecap="round" stroke-linejoin="round"><path d="M64 17L76 46L108 51L84 74L91 109L64 89L37 109L44 74L20 51L52 46Z"/><circle cx="64" cy="64" r="20"/></g><circle cx="28" cy="98" r="5" fill="#fff"/><path d="M82 18l5 5-5 5-5-5Z" fill="#c9efff"/><g fill="#fff" opacity=".8"><circle cx="60" cy="38" r="2"/><circle cx="61" cy="86" r="1.8"/></g></svg>