<svg xmlns="http://www.w3.org/2000/svg" viewBox="0 0 128 128" role="img"><title>별빛 일격</title><defs><radialGradient id="bg"><stop stop-color="#fff0aa" stop-opacity=".4"/><stop offset="1" stop-color="#091320"/></radialGradient><filter id="glow"><feGaussianBlur stdDeviation="1.8"/></filter></defs><rect x="2" y="2" width="124" height="124" rx="25" fill="url(#bg)" stroke="#fff0aa" stroke-opacity=".65"/><g stroke="#fff0aa" stroke-width="2" opacity=".55"><path d="M67.83 20.17l0.52 -5.98"/><path d="M89.24 27.96l3.44 -4.91"/><path d="M103.88 45.40l5.44 -2.54"/><path d="M107.83 67.83l5.98 0.52"/><path d="M100.04 89.24l4.91 3.44"/><path d="M82.60 103.88l2.54 5.44"/><path d="M60.17 107.83l-0.52 5.98"/><path d="M38.76 100.04l-3.44 4.91"/><path d="M24.12 82.60l-5.44 2.54"/><path d="M20.17 60.17l-5.98 -0.52"/><path d="M27.96 38.76l-4.91 -3.44"/><path d="M45.40 24.12l-2.54 -5.44"/></g><g transform="rotate(-8 64 64)" fill="#fff0aa" fill-opacity=".18" stroke="#fff0aa" stroke-width="5" stroke-linecap="round" stroke-linejoin="round"><path d="M64 17L76 46L108 51L84 74L91 109L64 89L37 109L44 74L20 51L52 46Z"/><circle cx="64" cy="64" r="21"/></g><circle cx="38" cy="92" r="6" fill="#fff"/><path d="M86 18l5 5-5 5-5-5Z" fill="#fff0aa"/><g fill="#fff" opacity=".8"><circle cx="55" cy="45" r="2"/><circle cx="76" cy="94" r="1.8"/></g></svg>