<svg xmlns="http://www.w3.org/2000/svg" viewBox="0 0 128 128" role="img"><title>산의 붕괴</title><defs><radialGradient id="bg"><stop stop-color="#d4a160" stop-opacity=".4"/><stop offset="1" stop-color="#091320"/></radialGradient><filter id="glow"><feGaussianBlur stdDeviation="1.8"/></filter></defs><rect x="2" y="2" width="124" height="124" rx="25" fill="url(#bg)" stroke="#d4a160" stroke-opacity=".65"/><g stroke="#d4a160" stroke-width="2" opacity=".55"><path d="M32.45 86.92l-4.85 3.53"/><path d="M32.45 41.08l-4.85 -3.53"/><path d="M76.05 26.91l1.85 -5.71"/><path d="M103.00 64.00l6.00 -0.00"/><path d="M76.05 101.09l1.85 5.71"/></g><g transform="rotate(8 64 64)" fill="#d4a160" fill-opacity=".18" stroke="#d4a160" stroke-width="5" stroke-linecap="round" stroke-linejoin="round"><path d="M64 17L76 46L108 51L84 74L91 109L64 89L37 109L44 74L20 51L52 46Z"/><circle cx="64" cy="64" r="10"/></g><circle cx="32" cy="93" r="3" fill="#fff"/><path d="M83 18l5 5-5 5-5-5Z" fill="#d4a160"/><g fill="#fff" opacity=".8"><circle cx="54" cy="49" r="2"/><circle cx="61" cy="94" r="1.8"/></g></svg>