<svg xmlns="http://www.w3.org/2000/svg" viewBox="0 0 128 128" role="img"><title>맹독 응축</title><defs><radialGradient id="bg"><stop stop-color="#bbef57" stop-opacity=".4"/><stop offset="1" stop-color="#091320"/></radialGradient><filter id="glow"><feGaussianBlur stdDeviation="1.8"/></filter></defs><rect x="2" y="2" width="124" height="124" rx="25" fill="url(#bg)" stroke="#bbef57" stroke-opacity=".65"/><g stroke="#bbef57" stroke-width="2" opacity=".55"><path d="M44.75 27.80l-2.82 -5.30"/><path d="M80.30 26.38l2.39 -5.51"/><path d="M103.58 53.29l5.79 -1.57"/><path d="M97.05 88.26l4.84 3.55"/><path d="M65.64 104.97l0.24 6.00"/><path d="M32.99 90.82l-4.54 3.93"/><path d="M23.70 56.48l-5.90 -1.10"/></g><g transform="rotate(1 64 64)" fill="#bbef57" fill-opacity=".18" stroke="#bbef57" stroke-width="5" stroke-linecap="round" stroke-linejoin="round"><path d="M64 17L108 43L96 92L64 111L32 92L20 43Z"/><path d="M43 42L85 86M85 42L43 86"/><circle cx="64" cy="64" r="25"/></g><circle cx="37" cy="95" r="5" fill="#fff"/><path d="M90 18l5 5-5 5-5-5Z" fill="#bbef57"/><g fill="#fff" opacity=".8"><circle cx="52" cy="57" r="2"/><circle cx="69" cy="94" r="1.8"/></g></svg>