<svg xmlns="http://www.w3.org/2000/svg" viewBox="0 0 128 128" role="img"><title>진흙 구역</title><defs><radialGradient id="bg"><stop stop-color="#d4a160" stop-opacity=".4"/><stop offset="1" stop-color="#091320"/></radialGradient><filter id="glow"><feGaussianBlur stdDeviation="1.8"/></filter></defs><rect x="2" y="2" width="124" height="124" rx="25" fill="url(#bg)" stroke="#d4a160" stroke-opacity=".65"/><g stroke="#d4a160" stroke-width="2" opacity=".55"><path d="M101.42 44.93l5.35 -2.72"/><path d="M99.22 86.87l5.03 3.27"/><path d="M61.80 105.94l-0.31 5.99"/><path d="M26.58 83.07l-5.35 2.72"/><path d="M28.78 41.13l-5.03 -3.27"/><path d="M66.20 22.06l0.31 -5.99"/></g><g transform="rotate(8 64 64)" fill="#d4a160" fill-opacity=".18" stroke="#d4a160" stroke-width="5" stroke-linecap="round" stroke-linejoin="round"><path d="M17 48Q35 20 54 48T92 48T115 48M17 70Q35 42 54 70T92 70T115 70M17 92Q35 64 54 92T92 92T115 92"/></g><circle cx="37" cy="90" r="4" fill="#fff"/><path d="M81 18l5 5-5 5-5-5Z" fill="#d4a160"/><g fill="#fff" opacity=".8"><circle cx="57" cy="40" r="2"/><circle cx="67" cy="88" r="1.8"/></g></svg>